<?xml version="1.0" encoding="UTF-8" standalone="no"?>
<!DOCTYPE svg PUBLIC "-//W3C//DTD SVG 1.1//EN"
 "http://www.w3.org/Graphics/SVG/1.1/DTD/svg11.dtd">
<!-- Generated by graphviz version 2.43.0 (0)
 -->
<!-- Title: deps Pages: 1 -->
<svg width="778pt" height="702pt"
 viewBox="0.00 0.00 778.00 701.73" xmlns="http://www.w3.org/2000/svg" xmlns:xlink="http://www.w3.org/1999/xlink">
<g id="graph0" class="graph" transform="scale(1 1) rotate(0) translate(4 697.73)">
<title>deps</title>
<polygon fill="white" stroke="transparent" points="-4,4 -4,-697.73 774,-697.73 774,4 -4,4"/>
<!-- cmd -->
<g id="node1" class="node">
<title>cmd</title>
<polygon fill="none" stroke="black" points="54,-498 0,-498 0,-462 54,-462 54,-498"/>
<text text-anchor="middle" x="27" y="-477.5" font-family="Helvetica,sans-Serif" font-size="10.00">cmd</text>
</g>
<!-- pkg/deduplicator -->
<g id="node2" class="node">
<title>pkg/deduplicator</title>
<polygon fill="none" stroke="black" points="301,-462 203,-462 203,-426 301,-426 301,-462"/>
<text text-anchor="middle" x="252" y="-441.5" font-family="Helvetica,sans-Serif" font-size="10.00">pkg/deduplicator</text>
</g>
<!-- cmd&#45;&gt;pkg/deduplicator -->
<g id="edge1" class="edge">
<title>cmd&#45;&gt;pkg/deduplicator</title>
<path fill="none" stroke="#666666" d="M54.02,-475.8C87.88,-470.33 148.02,-460.62 192.97,-453.37"/>
<polygon fill="#666666" stroke="#666666" points="193.58,-456.81 202.89,-451.77 192.46,-449.9 193.58,-456.81"/>
</g>
<!-- pkg/flattener -->
<g id="node3" class="node">
<title>pkg/flattener</title>
<polygon fill="none" stroke="black" points="291.5,-608 212.5,-608 212.5,-572 291.5,-572 291.5,-608"/>
<text text-anchor="middle" x="252" y="-587.5" font-family="Helvetica,sans-Serif" font-size="10.00">pkg/flattener</text>
</g>
<!-- cmd&#45;&gt;pkg/flattener -->
<g id="edge2" class="edge">
<title>cmd&#45;&gt;pkg/flattener</title>
<path fill="none" stroke="#666666" d="M54.05,-497.57C64.94,-504.61 77.87,-512.56 90,-519 126.95,-538.63 170.46,-557.59 202.92,-570.96"/>
<polygon fill="#666666" stroke="#666666" points="201.61,-574.21 212.19,-574.76 204.26,-567.73 201.61,-574.21"/>
</g>
<!-- pkg/organizer -->
<g id="node4" class="node">
<title>pkg/organizer</title>
<polygon fill="none" stroke="black" points="293.5,-662 210.5,-662 210.5,-626 293.5,-626 293.5,-662"/>
<text text-anchor="middle" x="252" y="-641.5" font-family="Helvetica,sans-Serif" font-size="10.00">pkg/organizer</text>
</g>
<!-- cmd&#45;&gt;pkg/organizer -->
<g id="edge3" class="edge">
<title>cmd&#45;&gt;pkg/organizer</title>
<path fill="none" stroke="#666666" d="M41.43,-498.09C53.17,-513.12 71.23,-534.49 90,-550 124.89,-578.83 169.71,-604.22 203.2,-621.31"/>
<polygon fill="#666666" stroke="#666666" points="201.82,-624.54 212.32,-625.91 204.97,-618.29 201.82,-624.54"/>
</g>
<!-- pkg/renamer -->
<g id="node5" class="node">
<title>pkg/renamer</title>
<polygon fill="none" stroke="black" points="291.5,-554 212.5,-554 212.5,-518 291.5,-518 291.5,-554"/>
<text text-anchor="middle" x="252" y="-533.5" font-family="Helvetica,sans-Serif" font-size="10.00">pkg/renamer</text>
</g>
<!-- cmd&#45;&gt;pkg/renamer -->
<g id="edge4" class="edge">
<title>cmd&#45;&gt;pkg/renamer</title>
<path fill="none" stroke="#666666" d="M54.02,-486.53C90.33,-495.65 156.89,-512.37 202.5,-523.82"/>
<polygon fill="#666666" stroke="#666666" points="201.92,-527.28 212.47,-526.32 203.62,-520.49 201.92,-527.28"/>
</g>
<!-- pkg/unzipper -->
<g id="node6" class="node">
<title>pkg/unzipper</title>
<polygon fill="none" stroke="black" points="292,-224 212,-224 212,-188 292,-188 292,-224"/>
<text text-anchor="middle" x="252" y="-203.5" font-family="Helvetica,sans-Serif" font-size="10.00">pkg/unzipper</text>
</g>
<!-- cmd&#45;&gt;pkg/unzipper -->
<g id="edge5" class="edge">
<title>cmd&#45;&gt;pkg/unzipper</title>
<path fill="none" stroke="#666666" d="M32.76,-461.96C41.04,-432.86 60.11,-374.62 90,-333 129.12,-278.53 148.36,-271.88 203,-233 204.64,-231.84 206.33,-230.68 208.05,-229.54"/>
<polygon fill="#666666" stroke="#666666" points="210.26,-232.29 216.87,-224.01 206.54,-226.36 210.26,-232.29"/>
</g>
<!-- pkg/usecase -->
<g id="node7" class="node">
<title>pkg/usecase</title>
<polygon fill="none" stroke="black" points="167,-378 90,-378 90,-342 167,-342 167,-378"/>
<text text-anchor="middle" x="128.5" y="-357.5" font-family="Helvetica,sans-Serif" font-size="10.00">pkg/usecase</text>
</g>
<!-- cmd&#45;&gt;pkg/usecase -->
<g id="edge6" class="edge">
<title>cmd&#45;&gt;pkg/usecase</title>
<path fill="none" stroke="#666666" d="M43.11,-461.77C59.86,-441.57 87.02,-408.82 105.99,-385.94"/>
<polygon fill="#666666" stroke="#666666" points="108.88,-387.94 112.57,-378 103.49,-383.47 108.88,-387.94"/>
</g>
<!-- pkg/collector -->
<g id="node8" class="node">
<title>pkg/collector</title>
<polygon fill="none" stroke="black" points="770,-491 690,-491 690,-455 770,-455 770,-491"/>
<text text-anchor="middle" x="730" y="-470.5" font-family="Helvetica,sans-Serif" font-size="10.00">pkg/collector</text>
</g>
<!-- pkg/deduplicator&#45;&gt;pkg/collector -->
<g id="edge7" class="edge">
<title>pkg/deduplicator&#45;&gt;pkg/collector</title>
<path fill="none" stroke="#666666" d="M301.26,-446.94C392.18,-452.48 587.93,-464.41 679.67,-469.99"/>
<polygon fill="#666666" stroke="#666666" points="679.6,-473.5 689.8,-470.61 680.03,-466.51 679.6,-473.5"/>
</g>
<!-- pkg/hasher -->
<g id="node9" class="node">
<title>pkg/hasher</title>
<polygon fill="none" stroke="black" points="412.5,-330 341.5,-330 341.5,-294 412.5,-294 412.5,-330"/>
<text text-anchor="middle" x="377" y="-309.5" font-family="Helvetica,sans-Serif" font-size="10.00">pkg/hasher</text>
</g>
<!-- pkg/deduplicator&#45;&gt;pkg/hasher -->
<g id="edge8" class="edge">
<title>pkg/deduplicator&#45;&gt;pkg/hasher</title>
<path fill="none" stroke="#666666" d="M264.98,-425.97C280.14,-403.93 307.81,-366.23 337,-339 337.81,-338.24 338.65,-337.49 339.5,-336.74"/>
<polygon fill="#666666" stroke="#666666" points="341.97,-339.25 347.55,-330.24 337.57,-333.8 341.97,-339.25"/>
</g>
<!-- pkg/progress -->
<g id="node10" class="node">
<title>pkg/progress</title>
<polygon fill="none" stroke="black" points="417,-514 337,-514 337,-478 417,-478 417,-514"/>
<text text-anchor="middle" x="377" y="-493.5" font-family="Helvetica,sans-Serif" font-size="10.00">pkg/progress</text>
</g>
<!-- pkg/deduplicator&#45;&gt;pkg/progress -->
<g id="edge9" class="edge">
<title>pkg/deduplicator&#45;&gt;pkg/progress</title>
<path fill="none" stroke="#666666" d="M295.67,-462.04C305.87,-466.35 316.84,-470.99 327.29,-475.41"/>
<polygon fill="#666666" stroke="#666666" points="326.13,-478.72 336.7,-479.39 328.85,-472.27 326.13,-478.72"/>
</g>
<!-- pkg/safepath -->
<g id="node11" class="node">
<title>pkg/safepath</title>
<polygon fill="none" stroke="black" points="654,-407 574,-407 574,-371 654,-371 654,-407"/>
<text text-anchor="middle" x="614" y="-386.5" font-family="Helvetica,sans-Serif" font-size="10.00">pkg/safepath</text>
</g>
<!-- pkg/deduplicator&#45;&gt;pkg/safepath -->
<g id="edge10" class="edge">
<title>pkg/deduplicator&#45;&gt;pkg/safepath</title>
<path fill="none" stroke="#666666" d="M301.18,-436.64C369.7,-426.17 494.64,-407.08 563.75,-396.52"/>
<polygon fill="#666666" stroke="#666666" points="564.58,-399.94 573.93,-394.97 563.52,-393.02 564.58,-399.94"/>
</g>
<!-- pkg/trash -->
<g id="node12" class="node">
<title>pkg/trash</title>
<polygon fill="none" stroke="black" points="408,-384 346,-384 346,-348 408,-348 408,-384"/>
<text text-anchor="middle" x="377" y="-363.5" font-family="Helvetica,sans-Serif" font-size="10.00">pkg/trash</text>
</g>
<!-- pkg/deduplicator&#45;&gt;pkg/trash -->
<g id="edge11" class="edge">
<title>pkg/deduplicator&#45;&gt;pkg/trash</title>
<path fill="none" stroke="#666666" d="M281.53,-425.91C298.48,-415.16 320.18,-401.4 338.51,-389.77"/>
<polygon fill="#666666" stroke="#666666" points="340.63,-392.57 347.2,-384.26 336.88,-386.66 340.63,-392.57"/>
</g>
<!-- pkg/flattener&#45;&gt;pkg/collector -->
<g id="edge12" class="edge">
<title>pkg/flattener&#45;&gt;pkg/collector</title>
<path fill="none" stroke="#666666" d="M289.93,-608.3C293.86,-610.96 297.65,-613.87 301,-617 322.34,-636.95 311.3,-658.11 337,-672 368.28,-688.91 382.87,-681.96 417,-672 534.96,-637.58 650.82,-543.51 701.87,-498.13"/>
<polygon fill="#666666" stroke="#666666" points="704.39,-500.57 709.5,-491.29 699.72,-495.36 704.39,-500.57"/>
</g>
<!-- pkg/flattener&#45;&gt;pkg/hasher -->
<g id="edge13" class="edge">
<title>pkg/flattener&#45;&gt;pkg/hasher</title>
<path fill="none" stroke="#666666" d="M291.83,-572.59C295.32,-569.79 298.48,-566.61 301,-563 358.67,-480.29 283.24,-424.31 337,-339 337.25,-338.6 337.51,-338.2 337.78,-337.81"/>
<polygon fill="#666666" stroke="#666666" points="340.46,-340.06 344.4,-330.23 335.19,-335.46 340.46,-340.06"/>
</g>
<!-- pkg/flattener&#45;&gt;pkg/progress -->
<g id="edge14" class="edge">
<title>pkg/flattener&#45;&gt;pkg/progress</title>
<path fill="none" stroke="#666666" d="M287.39,-571.86C292.07,-569.05 296.72,-566.06 301,-563 318.5,-550.49 336.52,-534.51 350.51,-521.29"/>
<polygon fill="#666666" stroke="#666666" points="353.04,-523.71 357.84,-514.27 348.2,-518.66 353.04,-523.71"/>
</g>
<!-- pkg/flattener&#45;&gt;pkg/safepath -->
<g id="edge15" class="edge">
<title>pkg/flattener&#45;&gt;pkg/safepath</title>
<path fill="none" stroke="#666666" d="M287.81,-608.07C292.37,-610.87 296.89,-613.88 301,-617 319.03,-630.67 316.09,-644.34 337,-653 369.85,-666.61 385.24,-668.98 417,-653 517.54,-602.42 579.47,-473.16 602.63,-416.41"/>
<polygon fill="#666666" stroke="#666666" points="605.93,-417.59 606.38,-407.01 599.43,-415 605.93,-417.59"/>
</g>
<!-- pkg/flattener&#45;&gt;pkg/trash -->
<g id="edge17" class="edge">
<title>pkg/flattener&#45;&gt;pkg/trash</title>
<path fill="none" stroke="#666666" d="M291.58,-571.68C295.03,-569.08 298.25,-566.19 301,-563 301.73,-562.15 345.04,-447.82 365.51,-393.74"/>
<polygon fill="#666666" stroke="#666666" points="368.9,-394.68 369.16,-384.09 362.35,-392.2 368.9,-394.68"/>
</g>
<!-- pkg/sanitizer -->
<g id="node13" class="node">
<title>pkg/sanitizer</title>
<polygon fill="none" stroke="black" points="417,-644 337,-644 337,-608 417,-608 417,-644"/>
<text text-anchor="middle" x="377" y="-623.5" font-family="Helvetica,sans-Serif" font-size="10.00">pkg/sanitizer</text>
</g>
<!-- pkg/flattener&#45;&gt;pkg/sanitizer -->
<g id="edge16" class="edge">
<title>pkg/flattener&#45;&gt;pkg/sanitizer</title>
<path fill="none" stroke="#666666" d="M291.58,-601.29C302.81,-604.58 315.23,-608.21 327.01,-611.66"/>
<polygon fill="#666666" stroke="#666666" points="326.13,-615.05 336.71,-614.5 328.1,-608.33 326.13,-615.05"/>
</g>
<!-- pkg/organizer&#45;&gt;pkg/collector -->
<g id="edge22" class="edge">
<title>pkg/organizer&#45;&gt;pkg/collector</title>
<path fill="none" stroke="#666666" d="M279.65,-662.22C295.54,-671.97 316.54,-682.97 337,-688 371.53,-696.5 381.94,-693.91 417,-688 530.96,-668.78 568.44,-658.7 654,-581 679.81,-557.56 701.52,-523.65 714.83,-500.1"/>
<polygon fill="#666666" stroke="#666666" points="717.91,-501.77 719.68,-491.32 711.78,-498.39 717.91,-501.77"/>
</g>
<!-- pkg/organizer&#45;&gt;pkg/progress -->
<g id="edge23" class="edge">
<title>pkg/organizer&#45;&gt;pkg/progress</title>
<path fill="none" stroke="#666666" d="M290.01,-625.78C293.93,-623.11 297.69,-620.18 301,-617 329.29,-589.89 351.3,-549.95 363.96,-523.47"/>
<polygon fill="#666666" stroke="#666666" points="367.15,-524.92 368.2,-514.38 360.81,-521.96 367.15,-524.92"/>
</g>
<!-- pkg/organizer&#45;&gt;pkg/safepath -->
<g id="edge24" class="edge">
<title>pkg/organizer&#45;&gt;pkg/safepath</title>
<path fill="none" stroke="#666666" d="M293.78,-660.52C307.3,-665.2 322.58,-669.66 337,-672 430.82,-687.22 477.83,-672.57 538,-599 582.85,-544.16 601.9,-460.42 609.12,-417.12"/>
<polygon fill="#666666" stroke="#666666" points="612.61,-417.44 610.71,-407.02 605.7,-416.35 612.61,-417.44"/>
</g>
<!-- pkg/organizer&#45;&gt;pkg/sanitizer -->
<g id="edge25" class="edge">
<title>pkg/organizer&#45;&gt;pkg/sanitizer</title>
<path fill="none" stroke="#666666" d="M293.62,-638.06C304.22,-636.5 315.77,-634.81 326.77,-633.2"/>
<polygon fill="#666666" stroke="#666666" points="327.29,-636.67 336.68,-631.75 326.28,-629.74 327.29,-636.67"/>
</g>
<!-- pkg/renamer&#45;&gt;pkg/collector -->
<g id="edge26" class="edge">
<title>pkg/renamer&#45;&gt;pkg/collector</title>
<path fill="none" stroke="#666666" d="M291.82,-541.03C306.01,-542.64 322.21,-544.21 337,-545 372.5,-546.9 381.67,-549.02 417,-545 511.44,-534.24 618.91,-505.74 679.87,-487.99"/>
<polygon fill="#666666" stroke="#666666" points="681,-491.31 689.61,-485.13 679.03,-484.59 681,-491.31"/>
</g>
<!-- pkg/renamer&#45;&gt;pkg/hasher -->
<g id="edge27" class="edge">
<title>pkg/renamer&#45;&gt;pkg/hasher</title>
<path fill="none" stroke="#666666" d="M269.27,-517.86C279.65,-505.44 292.68,-488.17 301,-471 327.51,-416.28 301.88,-388.64 337,-339 337.36,-338.5 337.73,-338 338.11,-337.51"/>
<polygon fill="#666666" stroke="#666666" points="340.77,-339.78 345.12,-330.12 335.7,-334.96 340.77,-339.78"/>
</g>
<!-- pkg/renamer&#45;&gt;pkg/progress -->
<g id="edge28" class="edge">
<title>pkg/renamer&#45;&gt;pkg/progress</title>
<path fill="none" stroke="#666666" d="M291.58,-523.45C302.81,-519.8 315.23,-515.76 327.01,-511.93"/>
<polygon fill="#666666" stroke="#666666" points="328.28,-515.2 336.71,-508.78 326.12,-508.54 328.28,-515.2"/>
</g>
<!-- pkg/renamer&#45;&gt;pkg/safepath -->
<g id="edge29" class="edge">
<title>pkg/renamer&#45;&gt;pkg/safepath</title>
<path fill="none" stroke="#666666" d="M291.82,-539.85C326.18,-541.68 376.93,-540.44 417,-523 436.9,-514.34 435.75,-503.18 453,-490 491.41,-460.65 538.53,-431.67 571.66,-412.33"/>
<polygon fill="#666666" stroke="#666666" points="573.72,-415.18 580.61,-407.14 570.21,-409.12 573.72,-415.18"/>
</g>
<!-- pkg/renamer&#45;&gt;pkg/trash -->
<g id="edge31" class="edge">
<title>pkg/renamer&#45;&gt;pkg/trash</title>
<path fill="none" stroke="#666666" d="M266.53,-517.84C276.19,-504.84 289.46,-486.89 301,-471 320.32,-444.4 342.14,-413.78 357.24,-392.5"/>
<polygon fill="#666666" stroke="#666666" points="360.15,-394.45 363.08,-384.27 354.44,-390.41 360.15,-394.45"/>
</g>
<!-- pkg/renamer&#45;&gt;pkg/sanitizer -->
<g id="edge30" class="edge">
<title>pkg/renamer&#45;&gt;pkg/sanitizer</title>
<path fill="none" stroke="#666666" d="M287.09,-554.06C291.85,-556.9 296.62,-559.93 301,-563 318.29,-575.12 320.84,-580.41 337,-594 339.85,-596.4 342.83,-598.88 345.81,-601.35"/>
<polygon fill="#666666" stroke="#666666" points="343.71,-604.15 353.65,-607.81 348.16,-598.75 343.71,-604.15"/>
</g>
<!-- pkg/unzipper&#45;&gt;pkg/collector -->
<g id="edge35" class="edge">
<title>pkg/unzipper&#45;&gt;pkg/collector</title>
<path fill="none" stroke="#666666" d="M292.41,-196.05C349.86,-183.74 458.44,-168.96 538,-209 637.63,-259.15 697.09,-388.64 719.16,-445.52"/>
<polygon fill="#666666" stroke="#666666" points="715.91,-446.84 722.73,-454.95 722.46,-444.36 715.91,-446.84"/>
</g>
<!-- pkg/unzipper&#45;&gt;pkg/progress -->
<g id="edge37" class="edge">
<title>pkg/unzipper&#45;&gt;pkg/progress</title>
<path fill="none" stroke="#666666" d="M292.07,-223.94C295.42,-226.61 298.49,-229.63 301,-233 344.52,-291.47 316.04,-323.19 337,-393 344.8,-418.97 355.92,-447.77 364.29,-468.3"/>
<polygon fill="#666666" stroke="#666666" points="361.11,-469.75 368.16,-477.66 367.58,-467.08 361.11,-469.75"/>
</g>
<!-- pkg/unzipper&#45;&gt;pkg/safepath -->
<g id="edge38" class="edge">
<title>pkg/unzipper&#45;&gt;pkg/safepath</title>
<path fill="none" stroke="#666666" d="M291.65,-224.1C325.01,-239.84 374.42,-263.46 417,-285 470.46,-312.05 531.31,-344.62 570.83,-366.02"/>
<polygon fill="#666666" stroke="#666666" points="569.45,-369.25 579.91,-370.94 572.79,-363.1 569.45,-369.25"/>
</g>
<!-- pkg/unzipper&#45;&gt;pkg/trash -->
<g id="edge39" class="edge">
<title>pkg/unzipper&#45;&gt;pkg/trash</title>
<path fill="none" stroke="#666666" d="M291.7,-224.22C295.13,-226.84 298.31,-229.76 301,-233 332.78,-271.28 307.04,-299.28 337,-339 337.46,-339.62 337.95,-340.22 338.45,-340.82"/>
<polygon fill="#666666" stroke="#666666" points="336.15,-343.48 345.7,-348.07 341.1,-338.53 336.15,-343.48"/>
</g>
<!-- pkg/metadata -->
<g id="node15" class="node">
<title>pkg/metadata</title>
<polygon fill="none" stroke="black" points="538,-254 453,-254 453,-218 538,-218 538,-254"/>
<text text-anchor="middle" x="495.5" y="-233.5" font-family="Helvetica,sans-Serif" font-size="10.00">pkg/metadata</text>
</g>
<!-- pkg/unzipper&#45;&gt;pkg/metadata -->
<g id="edge36" class="edge">
<title>pkg/unzipper&#45;&gt;pkg/metadata</title>
<path fill="none" stroke="#666666" d="M292.07,-210.85C332.94,-215.93 397.31,-223.93 442.47,-229.54"/>
<polygon fill="#666666" stroke="#666666" points="442.29,-233.04 452.65,-230.8 443.16,-226.09 442.29,-233.04"/>
</g>
<!-- pkg/usecase&#45;&gt;pkg/deduplicator -->
<g id="edge41" class="edge">
<title>pkg/usecase&#45;&gt;pkg/deduplicator</title>
<path fill="none" stroke="#666666" d="M154.89,-378.22C168.99,-388.28 186.89,-400.94 203,-412 206.92,-414.69 211.04,-417.49 215.15,-420.26"/>
<polygon fill="#666666" stroke="#666666" points="213.24,-423.19 223.5,-425.85 217.14,-417.38 213.24,-423.19"/>
</g>
<!-- pkg/usecase&#45;&gt;pkg/flattener -->
<g id="edge43" class="edge">
<title>pkg/usecase&#45;&gt;pkg/flattener</title>
<path fill="none" stroke="#666666" d="M131.76,-378.11C137.38,-416.36 155.15,-506.52 203,-563 203.59,-563.7 204.21,-564.39 204.85,-565.06"/>
<polygon fill="#666666" stroke="#666666" points="202.56,-567.71 212.36,-571.72 207.2,-562.47 202.56,-567.71"/>
</g>
<!-- pkg/usecase&#45;&gt;pkg/organizer -->
<g id="edge48" class="edge">
<title>pkg/usecase&#45;&gt;pkg/organizer</title>
<path fill="none" stroke="#666666" d="M130.1,-378.31C132.49,-423.62 144.32,-542.71 203,-617 203.57,-617.72 204.17,-618.43 204.78,-619.12"/>
<polygon fill="#666666" stroke="#666666" points="202.41,-621.69 212.13,-625.91 207.16,-616.55 202.41,-621.69"/>
</g>
<!-- pkg/usecase&#45;&gt;pkg/renamer -->
<g id="edge50" class="edge">
<title>pkg/usecase&#45;&gt;pkg/renamer</title>
<path fill="none" stroke="#666666" d="M135.36,-378.14C145.46,-407.28 168.47,-465.21 203,-504 205.33,-506.62 207.93,-509.13 210.67,-511.5"/>
<polygon fill="#666666" stroke="#666666" points="208.66,-514.37 218.69,-517.8 212.99,-508.87 208.66,-514.37"/>
</g>
<!-- pkg/usecase&#45;&gt;pkg/unzipper -->
<g id="edge53" class="edge">
<title>pkg/usecase&#45;&gt;pkg/unzipper</title>
<path fill="none" stroke="#666666" d="M136.46,-341.59C147.29,-314.92 170.38,-265.23 203,-233 203.92,-232.09 204.87,-231.21 205.86,-230.34"/>
<polygon fill="#666666" stroke="#666666" points="208.13,-233.01 213.9,-224.12 203.85,-227.47 208.13,-233.01"/>
</g>
<!-- pkg/usecase&#45;&gt;pkg/collector -->
<g id="edge40" class="edge">
<title>pkg/usecase&#45;&gt;pkg/collector</title>
<path fill="none" stroke="#666666" d="M128.79,-341.82C127.85,-291.98 131.99,-151.41 203,-70 257.52,-7.49 293.06,0 376,0 376,0 376,0 496.5,0 695.8,0 724.27,-342.41 728.33,-444.57"/>
<polygon fill="#666666" stroke="#666666" points="724.84,-444.88 728.68,-454.75 731.83,-444.63 724.84,-444.88"/>
</g>
<!-- pkg/usecase&#45;&gt;pkg/hasher -->
<g id="edge44" class="edge">
<title>pkg/usecase&#45;&gt;pkg/hasher</title>
<path fill="none" stroke="#666666" d="M167.12,-358.63C202.19,-356.69 255.75,-352.06 301,-341 311.28,-338.49 322.04,-334.92 332.1,-331.15"/>
<polygon fill="#666666" stroke="#666666" points="333.45,-334.38 341.5,-327.49 330.91,-327.86 333.45,-334.38"/>
</g>
<!-- pkg/usecase&#45;&gt;pkg/progress -->
<g id="edge49" class="edge">
<title>pkg/usecase&#45;&gt;pkg/progress</title>
<path fill="none" stroke="#666666" d="M135.96,-378.08C146.04,-403.41 168.05,-448.86 203,-471 239.91,-494.38 290.01,-499.37 326.8,-499.26"/>
<polygon fill="#666666" stroke="#666666" points="326.86,-502.76 336.81,-499.11 326.75,-495.76 326.86,-502.76"/>
</g>
<!-- pkg/usecase&#45;&gt;pkg/safepath -->
<g id="edge51" class="edge">
<title>pkg/usecase&#45;&gt;pkg/safepath</title>
<path fill="none" stroke="#666666" d="M131.56,-341.78C138.29,-285.89 161.61,-118.72 203,-87 237.57,-60.51 257.83,-81.19 301,-87 409.25,-101.57 459.28,-76.28 538,-152 596.84,-208.6 609.68,-310.98 612.37,-360.57"/>
<polygon fill="#666666" stroke="#666666" points="608.88,-361.03 612.82,-370.87 615.88,-360.72 608.88,-361.03"/>
</g>
<!-- pkg/usecase&#45;&gt;pkg/trash -->
<g id="edge52" class="edge">
<title>pkg/usecase&#45;&gt;pkg/trash</title>
<path fill="none" stroke="#666666" d="M167.07,-368.57C178.54,-370.8 191.23,-372.89 203,-374 248.3,-378.28 300.5,-374.7 335.61,-371.06"/>
<polygon fill="#666666" stroke="#666666" points="336.37,-374.5 345.94,-369.94 335.62,-367.54 336.37,-374.5"/>
</g>
<!-- pkg/manifest -->
<g id="node14" class="node">
<title>pkg/manifest</title>
<polygon fill="none" stroke="black" points="292.5,-132 211.5,-132 211.5,-96 292.5,-96 292.5,-132"/>
<text text-anchor="middle" x="252" y="-111.5" font-family="Helvetica,sans-Serif" font-size="10.00">pkg/manifest</text>
</g>
<!-- pkg/usecase&#45;&gt;pkg/manifest -->
<g id="edge46" class="edge">
<title>pkg/usecase&#45;&gt;pkg/manifest</title>
<path fill="none" stroke="#666666" d="M131.75,-341.81C137.42,-302.4 155.39,-207.75 203,-146 205.02,-143.38 207.31,-140.91 209.78,-138.58"/>
<polygon fill="#666666" stroke="#666666" points="212.16,-141.16 217.6,-132.07 207.67,-135.78 212.16,-141.16"/>
</g>
<!-- pkg/usecase&#45;&gt;pkg/metadata -->
<g id="edge47" class="edge">
<title>pkg/usecase&#45;&gt;pkg/metadata</title>
<path fill="none" stroke="#666666" d="M130.56,-341.82C133.86,-303.83 147.44,-216.41 203,-179 281.77,-125.97 398.05,-178.73 457.12,-212.52"/>
<polygon fill="#666666" stroke="#666666" points="455.69,-215.74 466.09,-217.76 459.22,-209.69 455.69,-215.74"/>
</g>
<!-- pkg/filelock -->
<g id="node16" class="node">
<title>pkg/filelock</title>
<polygon fill="none" stroke="black" points="288.5,-332 215.5,-332 215.5,-296 288.5,-296 288.5,-332"/>
<text text-anchor="middle" x="252" y="-311.5" font-family="Helvetica,sans-Serif" font-size="10.00">pkg/filelock</text>
</g>
<!-- pkg/usecase&#45;&gt;pkg/filelock -->
<g id="edge42" class="edge">
<title>pkg/usecase&#45;&gt;pkg/filelock</title>
<path fill="none" stroke="#666666" d="M167.28,-345.7C179.49,-341.07 193.15,-335.9 205.85,-331.1"/>
<polygon fill="#666666" stroke="#666666" points="207.21,-334.32 215.32,-327.51 204.73,-327.78 207.21,-334.32"/>
</g>
<!-- pkg/journal -->
<g id="node17" class="node">
<title>pkg/journal</title>
<polygon fill="none" stroke="black" points="287.5,-278 216.5,-278 216.5,-242 287.5,-242 287.5,-278"/>
<text text-anchor="middle" x="252" y="-257.5" font-family="Helvetica,sans-Serif" font-size="10.00">pkg/journal</text>
</g>
<!-- pkg/usecase&#45;&gt;pkg/journal -->
<g id="edge45" class="edge">
<title>pkg/usecase&#45;&gt;pkg/journal</title>
<path fill="none" stroke="#666666" d="M145.24,-341.81C159.37,-326.13 181.19,-303.48 203,-287 204.57,-285.81 206.2,-284.64 207.87,-283.49"/>
<polygon fill="#666666" stroke="#666666" points="209.96,-286.31 216.45,-277.93 206.16,-280.43 209.96,-286.31"/>
</g>
<!-- pkg/safepath&#45;&gt;pkg/collector -->
<g id="edge32" class="edge">
<title>pkg/safepath&#45;&gt;pkg/collector</title>
<path fill="none" stroke="#666666" d="M639.46,-407.02C655.87,-419.12 677.71,-435.21 695.7,-448.47"/>
<polygon fill="#666666" stroke="#666666" points="694.06,-451.61 704.19,-454.72 698.22,-445.97 694.06,-451.61"/>
</g>
<!-- pkg/trash&#45;&gt;pkg/safepath -->
<g id="edge34" class="edge">
<title>pkg/trash&#45;&gt;pkg/safepath</title>
<path fill="none" stroke="#666666" d="M408.24,-368.96C447.62,-372.81 516.97,-379.6 563.93,-384.2"/>
<polygon fill="#666666" stroke="#666666" points="563.59,-387.68 573.88,-385.17 564.27,-380.71 563.59,-387.68"/>
</g>
<!-- pkg/trash&#45;&gt;pkg/metadata -->
<g id="edge33" class="edge">
<title>pkg/trash&#45;&gt;pkg/metadata</title>
<path fill="none" stroke="#666666" d="M406.54,-347.85C410.21,-345.06 413.79,-342.08 417,-339 441.11,-315.83 463.47,-284.62 477.92,-262.65"/>
<polygon fill="#666666" stroke="#666666" points="480.93,-264.43 483.42,-254.14 475.05,-260.63 480.93,-264.43"/>
</g>
<!-- pkg/manifest&#45;&gt;pkg/collector -->
<g id="edge18" class="edge">
<title>pkg/manifest&#45;&gt;pkg/collector</title>
<path fill="none" stroke="#666666" d="M292.52,-111.33C375.72,-108.16 568.3,-114.25 654,-229 703.93,-295.85 720.98,-396.33 726.51,-444.83"/>
<polygon fill="#666666" stroke="#666666" points="723.05,-445.33 727.58,-454.91 730.01,-444.59 723.05,-445.33"/>
</g>
<!-- pkg/manifest&#45;&gt;pkg/hasher -->
<g id="edge19" class="edge">
<title>pkg/manifest&#45;&gt;pkg/hasher</title>
<path fill="none" stroke="#666666" d="M267.27,-132.07C277.16,-144.88 290.4,-162.63 301,-179 324.08,-214.63 347.63,-257.72 362.03,-285"/>
<polygon fill="#666666" stroke="#666666" points="358.98,-286.72 366.73,-293.95 365.18,-283.47 358.98,-286.72"/>
</g>
<!-- pkg/manifest&#45;&gt;pkg/safepath -->
<g id="edge20" class="edge">
<title>pkg/manifest&#45;&gt;pkg/safepath</title>
<path fill="none" stroke="#666666" d="M292.7,-116.45C353.55,-122.3 469.93,-142.09 538,-209 580.92,-251.19 600.4,-321.59 608.29,-360.68"/>
<polygon fill="#666666" stroke="#666666" points="604.92,-361.65 610.22,-370.82 611.79,-360.34 604.92,-361.65"/>
</g>
<!-- pkg/metadata&#45;&gt;pkg/safepath -->
<g id="edge21" class="edge">
<title>pkg/metadata&#45;&gt;pkg/safepath</title>
<path fill="none" stroke="#666666" d="M523.19,-254.29C528.41,-258.48 533.61,-263.14 538,-268 564,-296.79 586.31,-335.76 599.68,-361.61"/>
<polygon fill="#666666" stroke="#666666" points="596.71,-363.49 604.36,-370.82 602.95,-360.32 596.71,-363.49"/>
</g>
</g>
</svg>
